<mxfile host="app.diagrams.net" modified="2022-04-03T21:59:35.733Z" agent="5.0 (Windows NT 10.0; Win64; x64) AppleWebKit/537.36 (KHTML, like Gecko) Chrome/100.0.4896.60 Safari/537.36" etag="YZxfwe24SSo0lU0HjMED" version="17.4.0" type="github">
  <diagram id="i8y-7qR8Fl1ULv21R2q5" name="Page-1">
    <mxGraphModel dx="1422" dy="800" grid="1" gridSize="10" guides="1" tooltips="1" connect="1" arrows="1" fold="1" page="1" pageScale="1" pageWidth="827" pageHeight="1169" math="0" shadow="0">
      <root>
        <mxCell id="0" />
        <mxCell id="1" parent="0" />
        <mxCell id="iJn-ZkvsXB1kb7BC1nfH-132" style="edgeStyle=orthogonalEdgeStyle;rounded=0;orthogonalLoop=1;jettySize=auto;html=1;exitX=0.5;exitY=1;exitDx=0;exitDy=0;entryX=0.586;entryY=-0.015;entryDx=0;entryDy=0;entryPerimeter=0;" parent="1" source="iJn-ZkvsXB1kb7BC1nfH-4" target="iJn-ZkvsXB1kb7BC1nfH-72" edge="1">
          <mxGeometry relative="1" as="geometry" />
        </mxCell>
        <mxCell id="iJn-ZkvsXB1kb7BC1nfH-4" value="开始" style="rounded=1;whiteSpace=wrap;html=1;" parent="1" vertex="1">
          <mxGeometry x="351" y="70" width="96" height="30" as="geometry" />
        </mxCell>
        <mxCell id="iJn-ZkvsXB1kb7BC1nfH-65" value="战斗单位" style="swimlane;childLayout=stackLayout;horizontal=1;startSize=30;horizontalStack=0;rounded=1;fontSize=14;fontStyle=0;strokeWidth=2;resizeParent=0;resizeLast=1;shadow=0;dashed=0;align=center;" parent="1" vertex="1">
          <mxGeometry x="50" y="90" width="150" height="150" as="geometry" />
        </mxCell>
        <mxCell id="iJn-ZkvsXB1kb7BC1nfH-66" value="+Attribute1 价格&#xa;+Attribute2 等级&#xa;+Attribute3 生命值&#xa;+Attribute4 近战攻击&#xa;+Attribute5 炮击攻击&#xa;+Attribute6 防御力&#xa;+Attribute7 技能ID&#xa; &#xa;" style="align=left;strokeColor=none;fillColor=none;spacingLeft=4;fontSize=12;verticalAlign=top;resizable=0;rotatable=0;part=1;" parent="iJn-ZkvsXB1kb7BC1nfH-65" vertex="1">
          <mxGeometry y="30" width="150" height="120" as="geometry" />
        </mxCell>
        <mxCell id="iJn-ZkvsXB1kb7BC1nfH-69" value="主角" style="swimlane;childLayout=stackLayout;horizontal=1;startSize=30;horizontalStack=0;rounded=1;fontSize=14;fontStyle=0;strokeWidth=2;resizeParent=0;resizeLast=1;shadow=0;dashed=0;align=center;" parent="1" vertex="1">
          <mxGeometry x="50" y="300" width="150" height="120" as="geometry" />
        </mxCell>
        <mxCell id="iJn-ZkvsXB1kb7BC1nfH-70" value="+Attribute1 等级&#xa;+Attribute2 经验&#xa;+Attribute3 生命值&#xa;+Attribute4 金钱&#xa;&#xa; &#xa;" style="align=left;strokeColor=none;fillColor=none;spacingLeft=4;fontSize=12;verticalAlign=top;resizable=0;rotatable=0;part=1;" parent="iJn-ZkvsXB1kb7BC1nfH-69" vertex="1">
          <mxGeometry y="30" width="150" height="90" as="geometry" />
        </mxCell>
        <mxCell id="iJn-ZkvsXB1kb7BC1nfH-72" value="系统更新" style="swimlane;fontStyle=0;childLayout=stackLayout;horizontal=1;startSize=26;fillColor=none;horizontalStack=0;resizeParent=1;resizeParentMax=0;resizeLast=0;collapsible=1;marginBottom=0;" parent="1" vertex="1">
          <mxGeometry x="332" y="170" width="140" height="130" as="geometry" />
        </mxCell>
        <mxCell id="iJn-ZkvsXB1kb7BC1nfH-73" value="1.主角增加经验" style="text;strokeColor=none;fillColor=none;align=left;verticalAlign=top;spacingLeft=4;spacingRight=4;overflow=hidden;rotatable=0;points=[[0,0.5],[1,0.5]];portConstraint=eastwest;" parent="iJn-ZkvsXB1kb7BC1nfH-72" vertex="1">
          <mxGeometry y="26" width="140" height="26" as="geometry" />
        </mxCell>
        <mxCell id="iJn-ZkvsXB1kb7BC1nfH-74" value="2.主角增加钱" style="text;strokeColor=none;fillColor=none;align=left;verticalAlign=top;spacingLeft=4;spacingRight=4;overflow=hidden;rotatable=0;points=[[0,0.5],[1,0.5]];portConstraint=eastwest;" parent="iJn-ZkvsXB1kb7BC1nfH-72" vertex="1">
          <mxGeometry y="52" width="140" height="26" as="geometry" />
        </mxCell>
        <mxCell id="iJn-ZkvsXB1kb7BC1nfH-83" value="3.商店刷新" style="text;strokeColor=none;fillColor=none;align=left;verticalAlign=top;spacingLeft=4;spacingRight=4;overflow=hidden;rotatable=0;points=[[0,0.5],[1,0.5]];portConstraint=eastwest;" parent="iJn-ZkvsXB1kb7BC1nfH-72" vertex="1">
          <mxGeometry y="78" width="140" height="26" as="geometry" />
        </mxCell>
        <mxCell id="iJn-ZkvsXB1kb7BC1nfH-84" value="4.待补充" style="text;strokeColor=none;fillColor=none;align=left;verticalAlign=top;spacingLeft=4;spacingRight=4;overflow=hidden;rotatable=0;points=[[0,0.5],[1,0.5]];portConstraint=eastwest;" parent="iJn-ZkvsXB1kb7BC1nfH-72" vertex="1">
          <mxGeometry y="104" width="140" height="26" as="geometry" />
        </mxCell>
        <mxCell id="iJn-ZkvsXB1kb7BC1nfH-76" value="玩家输入" style="swimlane;fontStyle=0;childLayout=stackLayout;horizontal=1;startSize=26;fillColor=none;horizontalStack=0;resizeParent=1;resizeParentMax=0;resizeLast=0;collapsible=1;marginBottom=0;" parent="1" vertex="1">
          <mxGeometry x="332" y="400" width="138" height="130" as="geometry" />
        </mxCell>
        <mxCell id="iJn-ZkvsXB1kb7BC1nfH-77" value="1.购买战斗单位" style="text;strokeColor=none;fillColor=none;align=left;verticalAlign=top;spacingLeft=4;spacingRight=4;overflow=hidden;rotatable=0;points=[[0,0.5],[1,0.5]];portConstraint=eastwest;" parent="iJn-ZkvsXB1kb7BC1nfH-76" vertex="1">
          <mxGeometry y="26" width="138" height="26" as="geometry" />
        </mxCell>
        <mxCell id="iJn-ZkvsXB1kb7BC1nfH-78" value="2.卖出战斗单位" style="text;strokeColor=none;fillColor=none;align=left;verticalAlign=top;spacingLeft=4;spacingRight=4;overflow=hidden;rotatable=0;points=[[0,0.5],[1,0.5]];portConstraint=eastwest;" parent="iJn-ZkvsXB1kb7BC1nfH-76" vertex="1">
          <mxGeometry y="52" width="138" height="26" as="geometry" />
        </mxCell>
        <mxCell id="iJn-ZkvsXB1kb7BC1nfH-82" value="3.调整队形" style="text;strokeColor=none;fillColor=none;align=left;verticalAlign=top;spacingLeft=4;spacingRight=4;overflow=hidden;rotatable=0;points=[[0,0.5],[1,0.5]];portConstraint=eastwest;" parent="iJn-ZkvsXB1kb7BC1nfH-76" vertex="1">
          <mxGeometry y="78" width="138" height="26" as="geometry" />
        </mxCell>
        <mxCell id="iJn-ZkvsXB1kb7BC1nfH-98" value="4.新单位登场" style="text;strokeColor=none;fillColor=none;align=left;verticalAlign=top;spacingLeft=4;spacingRight=4;overflow=hidden;rotatable=0;points=[[0,0.5],[1,0.5]];portConstraint=eastwest;" parent="iJn-ZkvsXB1kb7BC1nfH-76" vertex="1">
          <mxGeometry y="104" width="138" height="26" as="geometry" />
        </mxCell>
        <mxCell id="iJn-ZkvsXB1kb7BC1nfH-135" style="edgeStyle=orthogonalEdgeStyle;rounded=0;orthogonalLoop=1;jettySize=auto;html=1;exitX=0.5;exitY=1;exitDx=0;exitDy=0;entryX=0.5;entryY=0;entryDx=0;entryDy=0;" parent="1" source="iJn-ZkvsXB1kb7BC1nfH-85" target="iJn-ZkvsXB1kb7BC1nfH-111" edge="1">
          <mxGeometry relative="1" as="geometry" />
        </mxCell>
        <mxCell id="iJn-ZkvsXB1kb7BC1nfH-85" value="准备结束" style="shape=ext;double=1;rounded=1;whiteSpace=wrap;html=1;" parent="1" vertex="1">
          <mxGeometry x="336.5" y="610" width="131" height="30" as="geometry" />
        </mxCell>
        <mxCell id="iJn-ZkvsXB1kb7BC1nfH-90" value="触发时机" style="swimlane;fontStyle=0;childLayout=stackLayout;horizontal=1;startSize=26;fillColor=none;horizontalStack=0;resizeParent=1;resizeParentMax=0;resizeLast=0;collapsible=1;marginBottom=0;" parent="1" vertex="1">
          <mxGeometry x="540" y="450" width="130" height="104" as="geometry" />
        </mxCell>
        <mxCell id="iJn-ZkvsXB1kb7BC1nfH-91" value="1.购买" style="text;strokeColor=none;fillColor=none;align=left;verticalAlign=top;spacingLeft=4;spacingRight=4;overflow=hidden;rotatable=0;points=[[0,0.5],[1,0.5]];portConstraint=eastwest;" parent="iJn-ZkvsXB1kb7BC1nfH-90" vertex="1">
          <mxGeometry y="26" width="130" height="26" as="geometry" />
        </mxCell>
        <mxCell id="iJn-ZkvsXB1kb7BC1nfH-92" value="2.卖出" style="text;strokeColor=none;fillColor=none;align=left;verticalAlign=top;spacingLeft=4;spacingRight=4;overflow=hidden;rotatable=0;points=[[0,0.5],[1,0.5]];portConstraint=eastwest;" parent="iJn-ZkvsXB1kb7BC1nfH-90" vertex="1">
          <mxGeometry y="52" width="130" height="26" as="geometry" />
        </mxCell>
        <mxCell id="iJn-ZkvsXB1kb7BC1nfH-93" value="3.新单位登场" style="text;strokeColor=none;fillColor=none;align=left;verticalAlign=top;spacingLeft=4;spacingRight=4;overflow=hidden;rotatable=0;points=[[0,0.5],[1,0.5]];portConstraint=eastwest;" parent="iJn-ZkvsXB1kb7BC1nfH-90" vertex="1">
          <mxGeometry y="78" width="130" height="26" as="geometry" />
        </mxCell>
        <mxCell id="iJn-ZkvsXB1kb7BC1nfH-100" value="" style="edgeStyle=segmentEdgeStyle;endArrow=classic;html=1;rounded=0;exitX=1.029;exitY=0.1;exitDx=0;exitDy=0;exitPerimeter=0;" parent="1" source="iJn-ZkvsXB1kb7BC1nfH-76" target="iJn-ZkvsXB1kb7BC1nfH-90" edge="1">
          <mxGeometry width="50" height="50" relative="1" as="geometry">
            <mxPoint x="390" y="510" as="sourcePoint" />
            <mxPoint x="530" y="360" as="targetPoint" />
          </mxGeometry>
        </mxCell>
        <mxCell id="iJn-ZkvsXB1kb7BC1nfH-142" style="edgeStyle=orthogonalEdgeStyle;rounded=0;orthogonalLoop=1;jettySize=auto;html=1;exitX=1;exitY=0.5;exitDx=0;exitDy=0;entryX=0;entryY=0.5;entryDx=0;entryDy=0;" parent="1" source="iJn-ZkvsXB1kb7BC1nfH-105" target="iJn-ZkvsXB1kb7BC1nfH-141" edge="1">
          <mxGeometry relative="1" as="geometry" />
        </mxCell>
        <mxCell id="iJn-ZkvsXB1kb7BC1nfH-105" value="触发BUFF" style="shape=ext;double=1;rounded=1;whiteSpace=wrap;html=1;" parent="1" vertex="1">
          <mxGeometry x="790" y="552.5" width="130" height="30" as="geometry" />
        </mxCell>
        <mxCell id="iJn-ZkvsXB1kb7BC1nfH-108" value="" style="edgeStyle=segmentEdgeStyle;endArrow=classic;html=1;rounded=0;exitX=1;exitY=0.5;exitDx=0;exitDy=0;" parent="1" source="iJn-ZkvsXB1kb7BC1nfH-92" edge="1">
          <mxGeometry width="50" height="50" relative="1" as="geometry">
            <mxPoint x="710.002" y="517" as="sourcePoint" />
            <mxPoint x="841" y="554" as="targetPoint" />
            <Array as="points">
              <mxPoint x="670" y="517" />
              <mxPoint x="841" y="517" />
            </Array>
          </mxGeometry>
        </mxCell>
        <mxCell id="iJn-ZkvsXB1kb7BC1nfH-110" value="" style="edgeStyle=elbowEdgeStyle;elbow=horizontal;endArrow=classic;html=1;rounded=0;exitX=1;exitY=0.5;exitDx=0;exitDy=0;entryX=0;entryY=0.5;entryDx=0;entryDy=0;" parent="1" source="iJn-ZkvsXB1kb7BC1nfH-85" target="iJn-ZkvsXB1kb7BC1nfH-105" edge="1">
          <mxGeometry width="50" height="50" relative="1" as="geometry">
            <mxPoint x="530" y="620" as="sourcePoint" />
            <mxPoint x="580" y="570" as="targetPoint" />
          </mxGeometry>
        </mxCell>
        <mxCell id="iJn-ZkvsXB1kb7BC1nfH-136" style="edgeStyle=orthogonalEdgeStyle;rounded=0;orthogonalLoop=1;jettySize=auto;html=1;exitX=0.5;exitY=1;exitDx=0;exitDy=0;entryX=0.5;entryY=0;entryDx=0;entryDy=0;" parent="1" source="iJn-ZkvsXB1kb7BC1nfH-111" target="iJn-ZkvsXB1kb7BC1nfH-114" edge="1">
          <mxGeometry relative="1" as="geometry" />
        </mxCell>
        <mxCell id="iJn-ZkvsXB1kb7BC1nfH-111" value="战斗开始" style="shape=ext;double=1;rounded=1;whiteSpace=wrap;html=1;" parent="1" vertex="1">
          <mxGeometry x="336.5" y="670" width="131" height="30" as="geometry" />
        </mxCell>
        <mxCell id="iJn-ZkvsXB1kb7BC1nfH-112" value="" style="edgeStyle=elbowEdgeStyle;elbow=vertical;endArrow=classic;html=1;rounded=0;entryX=0.634;entryY=0.967;entryDx=0;entryDy=0;entryPerimeter=0;exitX=1;exitY=0.5;exitDx=0;exitDy=0;" parent="1" source="iJn-ZkvsXB1kb7BC1nfH-111" target="iJn-ZkvsXB1kb7BC1nfH-105" edge="1">
          <mxGeometry width="50" height="50" relative="1" as="geometry">
            <mxPoint x="540" y="690" as="sourcePoint" />
            <mxPoint x="620" y="650" as="targetPoint" />
            <Array as="points">
              <mxPoint x="660" y="685" />
            </Array>
          </mxGeometry>
        </mxCell>
        <mxCell id="iJn-ZkvsXB1kb7BC1nfH-118" value="" style="edgeStyle=orthogonalEdgeStyle;rounded=0;orthogonalLoop=1;jettySize=auto;html=1;" parent="1" source="iJn-ZkvsXB1kb7BC1nfH-114" edge="1">
          <mxGeometry relative="1" as="geometry">
            <mxPoint x="577.375" y="755" as="targetPoint" />
          </mxGeometry>
        </mxCell>
        <mxCell id="iJn-ZkvsXB1kb7BC1nfH-137" style="edgeStyle=orthogonalEdgeStyle;rounded=0;orthogonalLoop=1;jettySize=auto;html=1;exitX=0.5;exitY=1;exitDx=0;exitDy=0;entryX=0.5;entryY=0;entryDx=0;entryDy=0;" parent="1" source="iJn-ZkvsXB1kb7BC1nfH-114" target="iJn-ZkvsXB1kb7BC1nfH-116" edge="1">
          <mxGeometry relative="1" as="geometry" />
        </mxCell>
        <mxCell id="iJn-ZkvsXB1kb7BC1nfH-114" value="1.判断顺序 2.远程炮击" style="shape=ext;double=1;rounded=1;whiteSpace=wrap;html=1;" parent="1" vertex="1">
          <mxGeometry x="325.25" y="740" width="154.75" height="30" as="geometry" />
        </mxCell>
        <mxCell id="iJn-ZkvsXB1kb7BC1nfH-139" style="edgeStyle=orthogonalEdgeStyle;rounded=0;orthogonalLoop=1;jettySize=auto;html=1;exitX=0.5;exitY=1;exitDx=0;exitDy=0;" parent="1" source="iJn-ZkvsXB1kb7BC1nfH-116" target="iJn-ZkvsXB1kb7BC1nfH-138" edge="1">
          <mxGeometry relative="1" as="geometry" />
        </mxCell>
        <mxCell id="iJn-ZkvsXB1kb7BC1nfH-116" value="1.判断顺序 2.近战对撞" style="shape=ext;double=1;rounded=1;whiteSpace=wrap;html=1;" parent="1" vertex="1">
          <mxGeometry x="317.25" y="820" width="154.75" height="30" as="geometry" />
        </mxCell>
        <mxCell id="iJn-ZkvsXB1kb7BC1nfH-119" value="触发时机" style="swimlane;fontStyle=0;childLayout=stackLayout;horizontal=1;startSize=26;fillColor=none;horizontalStack=0;resizeParent=1;resizeParentMax=0;resizeLast=0;collapsible=1;marginBottom=0;" parent="1" vertex="1">
          <mxGeometry x="580" y="710" width="130" height="182" as="geometry" />
        </mxCell>
        <mxCell id="iJn-ZkvsXB1kb7BC1nfH-120" value="1.攻击前" style="text;strokeColor=none;fillColor=none;align=left;verticalAlign=top;spacingLeft=4;spacingRight=4;overflow=hidden;rotatable=0;points=[[0,0.5],[1,0.5]];portConstraint=eastwest;" parent="iJn-ZkvsXB1kb7BC1nfH-119" vertex="1">
          <mxGeometry y="26" width="130" height="26" as="geometry" />
        </mxCell>
        <mxCell id="iJn-ZkvsXB1kb7BC1nfH-121" value="2.攻击后" style="text;strokeColor=none;fillColor=none;align=left;verticalAlign=top;spacingLeft=4;spacingRight=4;overflow=hidden;rotatable=0;points=[[0,0.5],[1,0.5]];portConstraint=eastwest;" parent="iJn-ZkvsXB1kb7BC1nfH-119" vertex="1">
          <mxGeometry y="52" width="130" height="26" as="geometry" />
        </mxCell>
        <mxCell id="iJn-ZkvsXB1kb7BC1nfH-122" value="3.击杀" style="text;strokeColor=none;fillColor=none;align=left;verticalAlign=top;spacingLeft=4;spacingRight=4;overflow=hidden;rotatable=0;points=[[0,0.5],[1,0.5]];portConstraint=eastwest;" parent="iJn-ZkvsXB1kb7BC1nfH-119" vertex="1">
          <mxGeometry y="78" width="130" height="26" as="geometry" />
        </mxCell>
        <mxCell id="iJn-ZkvsXB1kb7BC1nfH-128" value="4.受伤" style="text;strokeColor=none;fillColor=none;align=left;verticalAlign=top;spacingLeft=4;spacingRight=4;overflow=hidden;rotatable=0;points=[[0,0.5],[1,0.5]];portConstraint=eastwest;" parent="iJn-ZkvsXB1kb7BC1nfH-119" vertex="1">
          <mxGeometry y="104" width="130" height="26" as="geometry" />
        </mxCell>
        <mxCell id="iJn-ZkvsXB1kb7BC1nfH-129" value="5.自身 对手 死亡" style="text;strokeColor=none;fillColor=none;align=left;verticalAlign=top;spacingLeft=4;spacingRight=4;overflow=hidden;rotatable=0;points=[[0,0.5],[1,0.5]];portConstraint=eastwest;" parent="iJn-ZkvsXB1kb7BC1nfH-119" vertex="1">
          <mxGeometry y="130" width="130" height="26" as="geometry" />
        </mxCell>
        <mxCell id="iJn-ZkvsXB1kb7BC1nfH-130" value="6.召唤" style="text;strokeColor=none;fillColor=none;align=left;verticalAlign=top;spacingLeft=4;spacingRight=4;overflow=hidden;rotatable=0;points=[[0,0.5],[1,0.5]];portConstraint=eastwest;" parent="iJn-ZkvsXB1kb7BC1nfH-119" vertex="1">
          <mxGeometry y="156" width="130" height="26" as="geometry" />
        </mxCell>
        <mxCell id="iJn-ZkvsXB1kb7BC1nfH-131" style="edgeStyle=orthogonalEdgeStyle;rounded=0;orthogonalLoop=1;jettySize=auto;html=1;entryX=0.817;entryY=0.967;entryDx=0;entryDy=0;entryPerimeter=0;" parent="1" source="iJn-ZkvsXB1kb7BC1nfH-121" target="iJn-ZkvsXB1kb7BC1nfH-105" edge="1">
          <mxGeometry relative="1" as="geometry" />
        </mxCell>
        <mxCell id="iJn-ZkvsXB1kb7BC1nfH-133" style="edgeStyle=orthogonalEdgeStyle;rounded=0;orthogonalLoop=1;jettySize=auto;html=1;entryX=0.5;entryY=0;entryDx=0;entryDy=0;" parent="1" source="iJn-ZkvsXB1kb7BC1nfH-84" target="iJn-ZkvsXB1kb7BC1nfH-76" edge="1">
          <mxGeometry relative="1" as="geometry" />
        </mxCell>
        <mxCell id="iJn-ZkvsXB1kb7BC1nfH-134" style="edgeStyle=orthogonalEdgeStyle;rounded=0;orthogonalLoop=1;jettySize=auto;html=1;exitX=0;exitY=0.5;exitDx=0;exitDy=0;entryX=0.5;entryY=0;entryDx=0;entryDy=0;" parent="1" source="iJn-ZkvsXB1kb7BC1nfH-98" target="iJn-ZkvsXB1kb7BC1nfH-85" edge="1">
          <mxGeometry relative="1" as="geometry" />
        </mxCell>
        <mxCell id="iJn-ZkvsXB1kb7BC1nfH-140" style="edgeStyle=orthogonalEdgeStyle;rounded=0;orthogonalLoop=1;jettySize=auto;html=1;exitX=1;exitY=0.5;exitDx=0;exitDy=0;entryX=0.924;entryY=1.033;entryDx=0;entryDy=0;entryPerimeter=0;" parent="1" source="iJn-ZkvsXB1kb7BC1nfH-138" target="iJn-ZkvsXB1kb7BC1nfH-105" edge="1">
          <mxGeometry relative="1" as="geometry" />
        </mxCell>
        <mxCell id="iJn-ZkvsXB1kb7BC1nfH-138" value="战斗结束" style="shape=ext;double=1;rounded=1;whiteSpace=wrap;html=1;" parent="1" vertex="1">
          <mxGeometry x="321.63" y="892" width="154.75" height="30" as="geometry" />
        </mxCell>
        <mxCell id="iJn-ZkvsXB1kb7BC1nfH-141" value="更新战斗单位" style="rounded=0;whiteSpace=wrap;html=1;" parent="1" vertex="1">
          <mxGeometry x="1010" y="550" width="120" height="35" as="geometry" />
        </mxCell>
      </root>
    </mxGraphModel>
  </diagram>
</mxfile>
